<svg id="Layer_1" data-name="Layer 1" xmlns="http://www.w3.org/2000/svg" viewBox="0 0 154.12 117.05"><defs><style>.cls-1{opacity:0.18;}</style></defs><title>Capacity-Counter-Logo</title><path d="M25.93,21c.37,1.05.73,2,1.15,2.93s.87,1.78,1.33,2.63a40.89,40.89,0,0,0,1.07,5.5c.47,1.87,1,3.83,1.4,5.8s.79,4,1.11,5.94a103.68,103.68,0,0,1,1.16,12c.07,2,.08,4,0,6a38.83,38.83,0,0,1-2.8,5.83c-.85-2-1.48-4-2.19-5.94,0-1.92,0-3.83,0-5.75A98.68,98.68,0,0,0,27,44.62c-.3-1.89-.64-3.78-1.06-5.65s-.88-3.72-1.37-5.67-.91-4-1.23-6.07A15.43,15.43,0,0,1,25.93,21Z" transform="translate(59.35 -19.62)"/><path d="M41.88,19.62A50.62,50.62,0,0,1,45,25.4c.17,2,.43,4,.63,6L47,43.54l1.32,12.09.66,6A64.22,64.22,0,0,1,47.15,68,64.22,64.22,0,0,1,44,62.22l-.66-6L42,44.08,40.71,32c-.23-2-.41-4-.68-6A50.62,50.62,0,0,1,41.88,19.62Z" transform="translate(59.35 -19.62)"/><path d="M57.15,22a43,43,0,0,1,3.61,5.23c.32,1.93.7,3.84,1,5.76q1,5.76,1.88,11.56t1.56,11.6l.66,5.82A53.06,53.06,0,0,1,64,68c-1.18-1.84-2.1-3.69-3.06-5.53l-.65-5.75Q59.58,51,58.73,45.26T56.88,33.84c-.35-1.9-.66-3.8-1.07-5.68.16-1,.34-2,.58-3.06S56.83,23,57.15,22Z" transform="translate(59.35 -19.62)"/><path d="M72.41,19.63c1.1,2.08,2.19,4,3.28,5.83.34,2,.87,4,1.34,6.15,1,4.21,1.72,8.47,2.29,12.75s1,8.59,1.14,12.9c.1,2.16.14,4.32.13,6.48a46.55,46.55,0,0,1-2.65,6.36c-.91-2.17-1.58-4.28-2.35-6.37,0-2.08,0-4.17-.13-6.25-.17-4.17-.55-8.32-1.1-12.45s-1.29-8.24-2.21-12.31l-1.42-6.28A24.21,24.21,0,0,1,72.41,19.63Z" transform="translate(59.35 -19.62)"/><path d="M15.76,28.73c3.76-.11,7.44.09,11.14.29,1.75.48,3.49,1,5.25,1.45L37.4,32c7,2,13.94,4.25,20.78,6.87a154.74,154.74,0,0,1,20,9.21L83,50.83l2.32,1.51c.39.25.77.52,1.17.75a4.86,4.86,0,0,1,1.15.77c1.28,1.4,2.56,2.78,3.79,4.18s2.31,3,3.39,4.48c-1.73-.76-3.39-1.56-5-2.36l-5-2.19c-1.5-.94-2.94-2-4.44-2.89L75.75,52.4a149.77,149.77,0,0,0-19.36-8.91C49.73,40.94,42.9,38.75,36,36.75c-3.45-1-6.91-2-10.4-2.85C22.31,32.26,19,30.64,15.76,28.73Z" transform="translate(59.35 -19.62)"/><path class="cls-1" d="M-39.53,136.67c2.6,0-1-4-1.27-4.24q-2.46-3-5.12-5.79a8.54,8.54,0,0,0-3.14-2.59c-2.6,0,1,4,1.27,4.24q2.46,3,5.12,5.79A8.54,8.54,0,0,0-39.53,136.67Z" transform="translate(59.35 -19.62)"/><path class="cls-1" d="M-44.29,132.2q1.11.37.94-.78a11,11,0,0,0-2.46-3.94q-2.73-3.49-5.68-6.81a11,11,0,0,0-3.44-3.13q-1.11-.37-.94.78a11,11,0,0,0,2.46,3.94q2.73,3.49,5.68,6.81A11,11,0,0,0-44.29,132.2Z" transform="translate(59.35 -19.62)"/><path class="cls-1" d="M-41,130.84a1.17,1.17,0,0,0,.8-.92,1.8,1.8,0,0,0-.79-1.53c-.95-1.07-2.43-2.59-3.94-2.59a1.17,1.17,0,0,0-.8.92,1.8,1.8,0,0,0,.79,1.53C-44,129.32-42.55,130.84-41,130.84Z" transform="translate(59.35 -19.62)"/><path class="cls-1" d="M-41,131.22a2.82,2.82,0,0,0-1.2-2.58q-3.39-3.67-7-7.07t-7.43-6.67a2.82,2.82,0,0,0-2.64-1.07,2.82,2.82,0,0,0,1.2,2.58q3.39,3.67,7,7.07t7.43,6.67A2.82,2.82,0,0,0-41,131.22Z" transform="translate(59.35 -19.62)"/><path class="cls-1" d="M-38.72,130.22a.94.94,0,0,0,.72-1,2.72,2.72,0,0,0-1.32-1.75c-1.34-1.19-3.43-3.09-5.34-3.09a.94.94,0,0,0-.72,1,2.72,2.72,0,0,0,1.32,1.75C-42.72,128.33-40.62,130.22-38.72,130.22Z" transform="translate(59.35 -19.62)"/><path class="cls-1" d="M-43.52,133.71c1.55,0,.79-1.84.41-2.46-.64-1-2.09-3.39-3.54-3.39s-.79,1.84-.41,2.46C-46.42,131.36-45,133.71-43.52,133.71Z" transform="translate(59.35 -19.62)"/><path class="cls-1" d="M-36.94,132.18c2.54,0-1.57-3.54-1.46-3.45q-2.41-2-5-3.78a5.78,5.78,0,0,0-3-1.46c-2.54,0,1.57,3.54,1.46,3.45q2.41,2,5,3.78A5.78,5.78,0,0,0-36.94,132.18Z" transform="translate(59.35 -19.62)"/></svg>